<?xml version="1.0" encoding="iso-8859-1"?>
<!-- Generator: Adobe Illustrator 17.1.0, SVG Export Plug-In . SVG Version: 6.00 Build 0)  -->
<!DOCTYPE svg PUBLIC "-//W3C//DTD SVG 1.1//EN" "http://www.w3.org/Graphics/SVG/1.1/DTD/svg11.dtd">
<svg version="1.1" id="Capa_1" xmlns="http://www.w3.org/2000/svg" xmlns:xlink="http://www.w3.org/1999/xlink" x="0px" y="0px"
	 viewBox="0 0 327.252 327.252" style="enable-background:new 0 0 327.252 327.252;" xml:space="preserve">
<path id="XMLID_95_" d="M72.147,199.323L22.903,248.57c-2.148,2.147-4.963,3.222-7.778,3.222s-5.63-1.074-7.778-3.222
	c-4.296-4.296-4.296-11.261,0-15.557l49.245-49.247c4.296-4.295,11.26-4.295,15.556,0C76.443,188.062,76.443,195.027,72.147,199.323
	z M97.594,293.686l-14.788,14.788c-4.295,4.296-4.295,11.261,0,15.557c2.148,2.147,4.963,3.222,7.778,3.222s5.63-1.074,7.778-3.222
	l14.788-14.788c4.296-4.296,4.296-11.261,0-15.557C108.855,289.391,101.89,289.391,97.594,293.686z M314.463,45.988
	c-1.035,2.593-2.13,5.336-3.258,8.228l-71.764,183.864c-10.198,26.128-17.642,39.855-30.021,42.373
	c-1.328,0.271-2.613,0.399-3.862,0.399c-9.673,0-17.211-7.72-26.475-17.206c-0.249-0.254-0.5-0.511-0.752-0.77l-115.882,7.585
	c-4.574,0.294-8.848-2.265-10.738-6.438c-1.89-4.172-0.998-9.078,2.241-12.317l56.633-56.633l-48.538-48.537
	c-13.977-13.977-22.142-24.97-19.664-36.569c2.723-12.748,15.628-17.672,35.161-25.124c2.597-0.991,5.346-2.04,8.236-3.168
	L269.645,9.908c26.269-10.251,40.276-13.608,48.843-4.977C327.305,13.817,322.196,26.615,314.463,45.988z M299.695,22.92
	c-4.147,1.024-10.957,3.152-22.051,7.481L93.78,102.169c-2.945,1.149-5.747,2.219-8.393,3.229
	c-8.094,3.088-17.991,6.863-21.134,9.371c0.79,1.839,3.572,6.432,13.351,16.211l48.538,48.537l99.271-99.271
	c4.296-4.295,11.261-4.295,15.557,0c4.295,4.296,4.295,11.261,0,15.557L133.972,202.799c-0.017,0.018-0.035,0.035-0.052,0.053
	c-0.018,0.018-0.035,0.034-0.053,0.052L90.172,246.6l67.52-4.42l-13.031-13.031c-4.296-4.296-4.296-11.261,0-15.557
	c2.148-2.147,4.963-3.222,7.778-3.222s5.63,1.074,7.778,3.222l29.488,29.486c1.812,1.812,3.512,3.553,5.118,5.197
	c3.589,3.675,7.909,8.099,10.462,9.904c2.04-2.316,6.2-8.981,13.662-28.101l71.764-183.863c1.15-2.946,2.266-5.743,3.32-8.384
	C296,32.9,298.265,27.224,299.695,22.92z"/>
<g>
</g>
<g>
</g>
<g>
</g>
<g>
</g>
<g>
</g>
<g>
</g>
<g>
</g>
<g>
</g>
<g>
</g>
<g>
</g>
<g>
</g>
<g>
</g>
<g>
</g>
<g>
</g>
<g>
</g>
</svg>
